<?xml version="1.0" standalone="no"?>
<!DOCTYPE svg PUBLIC "-//W3C//DTD SVG 20010904//EN"
 "http://www.w3.org/TR/2001/REC-SVG-20010904/DTD/svg10.dtd">
<svg version="1.0" xmlns="http://www.w3.org/2000/svg"
 width="500.000000pt" height="500.000000pt" viewBox="0 0 500.000000 500.000000"
 preserveAspectRatio="xMidYMid meet">
<metadata>
Created by potrace 1.14, written by Peter Selinger 2001-2017
</metadata>
<g transform="translate(0.000000,500.000000) scale(0.100000,-0.100000)"
fill="#000000" stroke="none">
<path d="M749 4996 c-2 -2 -24 -7 -48 -11 -23 -3 -53 -10 -65 -14 -11 -5 -24
-9 -28 -10 -93 -19 -248 -108 -344 -198 -124 -117 -229 -313 -252 -472 -9 -60
-9 -3522 0 -3582 8 -58 51 -185 82 -247 27 -53 97 -150 147 -203 86 -92 242
-186 370 -223 31 -9 67 -20 80 -24 13 -3 816 -8 1784 -9 1906 -2 1821 -4 1969
51 268 101 476 336 532 601 3 11 9 40 14 65 5 27 8 756 7 1810 l-2 1765 -27
85 c-94 301 -306 507 -608 594 l-75 21 -1766 3 c-971 1 -1767 0 -1770 -2z"/>
</g>
</svg>
