<?xml version="1.0" standalone="no"?>
<!DOCTYPE svg PUBLIC "-//W3C//DTD SVG 20010904//EN"
 "http://www.w3.org/TR/2001/REC-SVG-20010904/DTD/svg10.dtd">
<svg version="1.0" xmlns="http://www.w3.org/2000/svg"
 width="378.000000pt" height="378.000000pt" viewBox="0 0 378.000000 378.000000"
 preserveAspectRatio="xMidYMid meet">
<metadata>
Created by potrace 1.14, written by Peter Selinger 2001-2017
</metadata>
<g transform="translate(0.000000,378.000000) scale(0.100000,-0.100000)"
fill="#000000" stroke="none">
<path d="M1502 3000 c-145 -82 -267 -150 -272 -150 -6 0 -10 -4 -10 -9 0 -5
-15 -14 -32 -22 -18 -7 -35 -16 -38 -19 -3 -4 -36 -24 -75 -45 -38 -21 -86
-48 -105 -60 -80 -49 -187 -104 -214 -109 -16 -3 -31 -7 -34 -10 -6 -7 -5
-603 2 -633 3 -13 2 -23 -2 -23 -8 0 -6 -95 2 -116 3 -7 1 -16 -4 -19 -5 -3
-6 -15 -1 -27 4 -11 4 -40 1 -64 -4 -23 -3 -49 2 -58 5 -8 4 -17 -1 -21 -7 -3
-7 -15 -1 -29 5 -13 6 -26 4 -29 -6 -5 -6 -110 -2 -205 2 -28 0 -52 -4 -52 -4
0 -2 -11 4 -25 10 -23 24 -30 46 -22 4 1 6 298 4 660 l-3 657 24 -9 c13 -5 47
-23 74 -40 28 -17 55 -31 62 -31 6 0 11 -4 11 -10 0 -5 7 -10 15 -10 8 0 15
-5 15 -11 0 -6 14 -1 30 11 16 12 30 18 30 14 0 -4 8 0 18 8 9 8 48 32 86 53
38 20 88 50 111 66 24 16 46 29 50 29 10 0 129 74 133 83 2 4 12 7 22 7 9 0
23 7 30 15 7 8 18 15 25 15 6 0 30 13 51 28 41 30 74 46 87 44 4 -1 7 2 7 7 0
4 28 23 63 41 34 18 65 38 69 44 4 6 8 7 8 2 0 -5 8 -2 18 6 9 8 50 34 90 58
39 23 72 45 72 49 0 13 -170 111 -192 111 -8 0 -132 -67 -276 -150z"/>
<path d="M1978 2979 c-27 -16 -48 -25 -48 -21 0 4 -4 2 -8 -4 -4 -5 -38 -28
-77 -49 -38 -22 -77 -44 -86 -50 -9 -5 -36 -21 -60 -34 -24 -13 -91 -51 -149
-85 -58 -35 -112 -65 -120 -69 -8 -4 -27 -15 -42 -25 -58 -38 -170 -102 -179
-102 -5 0 -9 -4 -9 -10 0 -5 -4 -10 -9 -10 -5 0 -47 -22 -93 -49 -52 -31 -87
-46 -93 -40 -5 5 -14 9 -20 9 -7 0 -10 -207 -10 -665 0 -438 3 -665 10 -665 5
0 19 -3 30 -6 19 -5 20 -1 18 58 -2 35 -4 332 -5 660 -3 689 -19 617 116 542
43 -24 82 -44 87 -44 11 0 95 46 304 168 99 58 205 119 235 135 30 17 72 41
93 54 20 13 37 20 37 16 0 -5 4 -3 8 3 4 7 30 25 58 40 99 55 189 108 232 135
l43 27 -28 11 c-29 11 -72 35 -117 65 -53 34 -68 35 -118 5z"/>
<path d="M2230 2837 c-25 -13 -63 -34 -85 -47 -22 -12 -56 -31 -75 -42 -19
-11 -48 -28 -65 -38 -16 -10 -64 -38 -105 -61 -41 -23 -110 -64 -153 -91 -43
-26 -81 -48 -83 -48 -3 0 -24 -13 -47 -28 -23 -16 -73 -46 -110 -68 -38 -21
-81 -47 -95 -57 -34 -22 -95 -51 -104 -49 -3 1 -11 -5 -18 -13 -8 -10 -18 -11
-36 -5 -17 7 -24 6 -24 -3 0 -6 -1 -305 -3 -664 -2 -645 -2 -652 18 -657 11
-3 25 -6 30 -6 7 0 10 162 10 465 0 256 -3 465 -7 465 -4 0 -4 10 1 23 5 12 5
31 1 42 -4 11 -5 24 -2 29 5 8 6 72 2 79 -6 9 -3 67 3 67 5 0 5 5 1 11 -11 18
-13 129 -2 129 13 0 150 -70 170 -88 15 -12 25 -10 90 22 40 19 102 53 138 75
71 43 162 96 370 214 74 43 142 81 150 86 8 5 74 44 145 87 72 43 133 77 138
76 4 -1 7 0 7 2 0 7 -194 116 -206 116 -5 0 -29 -11 -54 -23z"/>
<path d="M2460 2679 c-41 -23 -96 -54 -123 -70 -26 -16 -52 -29 -57 -29 -6 0
-10 -4 -10 -9 0 -5 -8 -11 -17 -14 -10 -3 -45 -22 -78 -41 -33 -19 -71 -41
-85 -49 -50 -28 -266 -154 -320 -187 -123 -74 -176 -104 -200 -113 -17 -6 -30
-15 -30 -19 0 -5 -13 -6 -29 -3 -29 5 -52 -17 -30 -30 5 -4 7 -10 4 -14 -3 -6
-9 -1222 -6 -1277 1 -6 13 -11 28 -10 l26 1 -2 610 c-1 336 -3 627 -5 647 -5
61 4 63 85 20 41 -21 84 -44 96 -52 24 -15 50 -5 168 64 22 13 99 57 170 98
72 41 174 100 228 131 54 32 99 57 101 57 2 0 45 25 95 55 51 30 93 55 95 55
8 0 177 102 174 105 -5 4 -199 115 -201 115 -1 -1 -36 -19 -77 -41z"/>
<path d="M2720 2565 c-19 -13 -39 -28 -45 -33 -5 -4 -35 -21 -65 -37 -30 -16
-73 -41 -95 -56 -22 -14 -50 -29 -62 -33 -13 -4 -23 -11 -23 -16 0 -4 -8 -10
-17 -13 -10 -4 -45 -22 -78 -42 -33 -19 -67 -38 -75 -42 -16 -8 -156 -88 -180
-103 -8 -5 -33 -19 -55 -31 -22 -12 -42 -24 -45 -28 -4 -5 -26 -17 -115 -65
-11 -6 -22 -13 -25 -16 -3 -3 -18 -12 -35 -20 -16 -8 -34 -21 -39 -29 -10 -17
-15 -1307 -4 -1324 4 -6 51 16 125 59 184 107 197 114 216 121 9 3 17 9 17 14
0 5 4 9 9 9 5 0 55 27 111 60 56 33 106 60 111 60 5 0 9 5 9 10 0 6 4 10 9 10
11 0 372 207 388 223 11 11 16 493 13 1305 0 23 -3 42 -7 42 -5 -1 -24 -12
-43 -25z"/>
</g>
</svg>
